<svg width="58" height="51" viewBox="0 0 58 51" fill="none" xmlns="http://www.w3.org/2000/svg">
<path d="M21.5429 0C27.2564 0 32.7359 1.99576 36.776 5.54823C40.816 9.10071 43.0857 13.9189 43.0857 18.9429C43.0857 23.6349 41.1303 27.948 37.9154 31.2703L38.8103 32.0571H41.4286L58 46.6286L53.0286 51L36.4571 36.4286V34.1263L35.5623 33.3394C31.6532 36.2734 26.6823 37.8854 21.5429 37.8857C15.8293 37.8857 10.3498 35.89 6.30976 32.3375C2.26969 28.785 0 23.9668 0 18.9429C0 13.9189 2.26969 9.10071 6.30976 5.54823C10.3498 1.99576 15.8293 0 21.5429 0V0ZM21.5429 5.82857C13.2571 5.82857 6.62857 11.6571 6.62857 18.9429C6.62857 26.2286 13.2571 32.0571 21.5429 32.0571C29.8286 32.0571 36.4571 26.2286 36.4571 18.9429C36.4571 11.6571 29.8286 5.82857 21.5429 5.82857Z" fill="#005662"/>
</svg>
